<?xml version="1.0" standalone="no"?>
<!DOCTYPE svg PUBLIC "-//W3C//DTD SVG 20010904//EN"
 "http://www.w3.org/TR/2001/REC-SVG-20010904/DTD/svg10.dtd">
<svg version="1.0" xmlns="http://www.w3.org/2000/svg"
 width="400.000000pt" height="400.000000pt" viewBox="0 0 400.000000 400.000000"
 preserveAspectRatio="xMidYMid meet">
<metadata>
Created by potrace 1.14, written by Peter Selinger 2001-2017
</metadata>
<g transform="translate(0.000000,400.000000) scale(0.100000,-0.100000)"
fill="#000000" stroke="none">
<path d="M890 3395 c-5 -27 -12 -66 -15 -85 -3 -19 -19 -109 -35 -200 -16 -91
-32 -181 -35 -200 -3 -19 -7 -46 -10 -60 -3 -14 -7 -38 -10 -55 -3 -16 -7 -41
-10 -55 -12 -68 -76 -429 -81 -460 -3 -19 -7 -42 -9 -50 -2 -8 -7 -37 -11 -65
-3 -27 -8 -53 -10 -56 -2 -4 -6 -31 -10 -60 -3 -30 -8 -57 -10 -60 -2 -3 -15
-75 -29 -160 -14 -85 -28 -163 -30 -174 -2 -11 -9 -45 -15 -75 -6 -30 -12 -69
-15 -87 -4 -29 -8 -55 -30 -178 -25 -145 -36 -203 -39 -221 -2 -12 -7 -37 -10
-55 -3 -19 -10 -61 -16 -94 -12 -68 -15 -84 -25 -140 -4 -22 -13 -74 -21 -115
-24 -126 -33 -116 111 -116 138 -1 129 -5 140 71 3 23 7 52 10 65 6 29 25 135
31 165 32 186 67 387 70 410 5 26 21 122 89 500 8 44 17 96 20 115 3 19 15 87
27 150 11 63 22 124 23 135 2 11 17 99 35 195 17 96 33 184 34 195 2 11 20
112 40 225 36 204 41 238 51 295 3 17 7 41 10 55 3 14 9 50 15 80 5 30 15 90
23 133 10 55 11 77 3 78 -6 1 -64 2 -128 3 l-118 1 -10 -50z"/>
<path d="M1725 3203 c-159 -27 -284 -114 -342 -239 -51 -111 -95 -383 -62
-385 19 -1 250 -1 269 0 11 1 16 16 18 58 10 197 93 298 234 288 178 -12 221
-245 101 -549 -42 -107 -94 -207 -262 -504 -70 -125 -139 -247 -153 -272 -14
-25 -35 -63 -48 -85 -13 -22 -52 -92 -88 -155 l-66 -115 -2 -128 -1 -127 491
2 490 3 1 128 c0 71 -4 131 -8 134 -5 3 -143 5 -308 4 -164 0 -299 2 -299 5 0
6 0 7 83 159 206 378 250 459 291 535 205 375 269 616 230 861 -32 200 -153
333 -338 370 -52 11 -194 18 -231 12z"/>
<path d="M2967 3182 c-18 -2 -31 -12 -37 -25 -5 -12 -48 -155 -95 -317 -48
-162 -93 -315 -101 -340 -8 -25 -72 -242 -144 -484 l-130 -438 0 -123 c0 -119
1 -123 23 -126 12 -3 167 -4 345 -4 l322 1 0 -168 0 -168 144 0 145 0 -1 159
c0 88 3 164 6 169 3 5 40 9 81 8 l75 -2 0 137 0 137 -76 0 c-41 0 -78 2 -80 5
-3 3 -6 155 -7 339 l-2 333 -130 1 c-71 0 -136 -2 -142 -4 -10 -3 -13 -80 -13
-341 l0 -336 -181 2 c-100 1 -183 4 -186 6 -2 3 30 124 72 268 78 269 105 362
240 829 42 146 90 309 106 364 16 54 29 104 29 110 0 10 -190 16 -263 8z"/>
</g>
</svg>
